<?xml version="1.0" encoding="utf-8"?>
<svg xmlns="http://www.w3.org/2000/svg" viewBox="0 0 50 50" fill="#000000"><path d="M 25.027344 2.9902344 A 1.0001 1.0001 0 0 0 24.943359 2.9921875 A 1.0001 1.0001 0 0 0 24.863281 3 L 14.570312 3 L 14.275391 3.3105469 L 0.97460938 17.310547 A 1.0009098 1.0009098 0 0 0 0.97265625 17.3125 L 0.3828125 17.933594 L 0.88476562 18.578125 A 1.0009098 1.0009098 0 0 0 0.9609375 18.675781 L 24.128906 48.509766 A 1.0001 1.0001 0 0 0 24.300781 48.730469 L 25 49.630859 L 25.699219 48.730469 A 1.0001 1.0001 0 0 0 25.869141 48.511719 L 49.076172 18.630859 A 1.0009098 1.0009098 0 0 0 49.136719 18.550781 L 49.617188 17.933594 L 49.025391 17.310547 L 35.724609 3.3105469 L 35.429688 3 L 25.136719 3 A 1.0001 1.0001 0 0 0 25.03125 2.9902344 A 1.0001 1.0001 0 0 0 25.027344 2.9902344 z M 15.808594 5 L 22.707031 5 L 13.740234 14.658203 L 15.808594 5 z M 27.292969 5 L 34.191406 5 L 36.259766 14.658203 L 27.292969 5 z M 25 5.46875 L 35.707031 17 L 14.292969 17 L 25 5.46875 z M 13.277344 7.265625 L 11.191406 17 L 4.03125 17 L 4.9414062 16.041016 L 13.277344 7.265625 z M 36.722656 7.265625 L 45.96875 17 L 38.808594 17 L 36.722656 7.265625 z M 3.7421875 19 L 11.341797 19 L 20.9375 41.140625 L 3.7421875 19 z M 13.523438 19 L 36.476562 19 L 25 45.482422 L 13.523438 19 z M 38.658203 19 L 46.257812 19 L 29.064453 41.136719 L 38.658203 19 z" fill="#000000"/></svg>
